<svg xmlns="http://www.w3.org/2000/svg">
  <symbol id="dc_logo" viewBox="0 0 80 96">
      <path fill="#084A58" d="M0 0v62.6c0 4.77 2.385 9.214 6.34 11.818L40 96l33.614-21.59C77.596 71.815 80 67.354 80 62.566V0H0z"/>
      <path fill="#FFF" d="M37.08 46.298c.323 0 .6.125.836.374l2.332 2.53c-1.29 1.6-2.878 2.823-4.763 3.674-1.885.85-4.147 1.276-6.787 1.276-2.36
        0-4.484-.403-6.37-1.21-1.884-.807-3.493-1.93-4.828-3.366-1.335-1.437-2.358-3.153-3.07-5.148-.71-1.995-1.066-4.173-1.066-6.534 0-2.39.396-4.58
        1.188-6.567.792-1.987 1.907-3.7 3.344-5.137 1.437-1.437 3.157-2.556 5.16-3.355 2-.8 4.212-1.2 6.632-1.2 2.36 0 4.426.38 6.193 1.134 1.77.75 3.29 1.75
        4.55 3l-1.98 2.75c-.11.17-.27.33-.45.46s-.43.2-.76.2-.68-.13-1.03-.4-.8-.55-1.34-.86c-.54-.31-1.23-.6-2.06-.86-.83-.27-1.88-.4-3.15-.4-1.49
        0-2.87.26-4.12.78s-2.34 1.26-3.24 2.23c-.9.97-1.6 2.14-2.11 3.53-.5 1.38-.76 2.94-.76 4.67 0 1.79.26 3.38.76 4.77.51 1.39 1.2 2.56 2.06 3.52.87.95
        1.89 1.68 3.06 2.19 1.18.5 2.44.75 3.79.75.81 0 1.54-.04 2.19-.13s1.258-.228 1.808-.42c.55-.19 1.07-.435 1.563-.736.49-.3.98-.67
        1.464-1.11.15-.133.3-.24.464-.32.16-.08.336-.12.527-.12zm15.136-15.466c.968 0 1.877.1 2.728.297.85.19 1.628.48 2.332.86h6.49v2.02c0
        .33-.088.6-.264.79-.176.19-.477.32-.902.39l-2.024.37c.147.38.26.78.34 1.21.082.42.122.87.122 1.34 0 1.11-.224 2.12-.67 3.02-.448.9-1.064 1.67-1.85
        2.3-.784.63-1.715 1.11-2.793 1.46s-2.248.51-3.51.51c-.85 0-1.678-.08-2.485-.246-.704.424-1.056.9-1.056 1.43 0 .454.21.787.627 1 .42.213.97.363
        1.65.45.69.09 1.46.143 2.33.165.87.02 1.76.07 2.66.142.91.07 1.8.2 2.66.383s1.64.475 2.32.87c.69.397 1.24.936 1.65 1.618.42.68.63 1.555.63 2.626 0
        .997-.24 1.965-.73 2.904-.49.94-1.2 1.776-2.13 2.51-.93.73-2.07 1.323-3.42 1.77-1.35.447-2.89.67-4.62.67-1.71
        0-3.2-.164-4.46-.494-1.26-.33-2.3-.77-3.13-1.32-.83-.55-1.445-1.18-1.86-1.9-.41-.72-.613-1.463-.613-2.24 0-1.055.32-1.942.965-2.66.64-.72 1.54-1.29
        2.68-1.72-.56-.305-1.006-.72-1.34-1.23-.34-.512-.51-1.18-.51-2 0-.34.06-.69.177-1.045.116-.36.296-.712.54-1.064.24-.35.544-.684.91-1 .37-.314.8-.6
        1.3-.846-1.145-.616-2.043-1.437-2.696-2.464-.65-1.03-.973-2.23-.973-3.61 0-1.12.223-2.127.67-3.03.447-.9 1.07-1.67 1.87-2.31.8-.64 1.745-1.127
        2.84-1.464 1.09-.34 2.28-.51 3.573-.51zm5.962 23.98c0-.44-.132-.8-.396-1.078-.264-.28-.623-.495-1.078-.65-.455-.153-.986-.267-1.595-.34-.61-.073-1.26-.128-1.94-.165-.68-.04-1.39-.08-2.11-.11-.73-.04-1.43-.1-2.1-.19-.62.33-1.11.73-1.49
        1.2-.38.46-.56.99-.56 1.59 0 .39.1.76.29 1.11.2.34.51.64.94.89.43.25.99.44 1.68.58.69.14 1.53.21 2.53.21 1.01 0 1.88-.08 2.62-.23.73-.16 1.34-.37
        1.81-.64s.82-.6 1.04-.97c.22-.38.33-.78.33-1.22zm-5.962-12.848c.675 0 1.26-.092 1.76-.275.5-.19.913-.44 1.243-.76.33-.33.57-.71.74-1.17.17-.46.25-.96.25-1.5
        0-1.12-.34-2-1-2.65-.67-.66-1.67-.98-3.01-.98s-2.34.32-3.01.98c-.67.65-1 1.53-1 2.65 0 .53.08 1.02.25 1.47.17.45.42.84.75 1.17.33.33.74.58
        1.25.77.51.18 1.09.27 1.75.27z"/>
  </symbol>
  <symbol id="fa-github" viewbox="0 0 22 21">
    <path fill="currentColor" d="M22 10.763c0 2.345-.7 4.454-2.098 6.327-1.4 1.874-3.206 3.17-5.422 3.89-.257.046-.446.013-.565-.099a.553.553 0 0
      1-.18-.42v-2.957c0-.906-.248-1.57-.744-1.99.544-.056 1.034-.14 1.468-.252a5.923 5.923 0 0 0 1.346-.547c.463-.252.85-.563
      1.16-.932.31-.369.564-.86.76-1.471.195-.612.293-1.315.293-2.11
      0-1.13-.377-2.092-1.131-2.887.353-.85.315-1.803-.115-2.858-.267-.085-.654-.033-1.16.154a7.79 7.79 0 0 0-1.318.616l-.544.337A10.375 10.375 0 0 0 11
      5.199c-.945 0-1.862.122-2.75.365a12.75 12.75 0 0 0-.609-.379c-.253-.15-.651-.329-1.196-.54-.544-.21-.955-.273-1.231-.188-.42 1.055-.454 2.008-.1
      2.858-.755.795-1.132 1.757-1.132 2.887 0 .795.098 1.495.293 2.103.196.607.447 1.097.752 1.471.306.374.69.687 1.153.939.463.252.912.434
      1.347.547.434.112.924.196 1.468.252-.382.336-.616.817-.702 1.443-.2.094-.415.164-.645.21a4.14 4.14 0 0 1-.816.07c-.315
      0-.628-.1-.938-.3-.31-.202-.575-.494-.795-.877a2.282 2.282 0 0 0-.695-.728c-.281-.187-.518-.3-.709-.337l-.286-.042c-.2
      0-.34.021-.416.063-.076.042-.1.096-.071.161a.77.77 0 0 0
      .129.197c.057.065.12.121.186.168l.1.07c.21.093.418.27.623.532.206.262.356.5.451.715l.144.323c.124.355.334.642.63.861.296.22.616.36.96.42.343.062.675.094.995.099.32.005.585-.012.795-.05l.33-.055c0
      .355.002.77.006 1.247l.008.757a.543.543 0 0 1-.187.42c-.124.112-.315.145-.572.098-2.216-.719-4.023-2.015-5.422-3.889C.7 15.217 0 13.108 0 10.763 0
      8.81.492 7.009 1.475 5.36A10.836 10.836 0 0 1 5.48 1.443C7.164.481 9.004 0 11 0s3.836.481 5.521 1.443a10.836 10.836 0 0 1 4.004 3.917C21.508 7.01 22 8.81
      22 10.763z"/>
  </symbol>
  <symbol id="fa-envelope-o" viewbox="0 0 22 17">
    <path fill="currentColor" d="M20.429 15.068V5.795c-.262.29-.545.556-.848.797-2.193 1.658-3.936 3.019-5.23
      4.081-.417.346-.757.616-1.018.81-.262.192-.616.388-1.062.585-.446.197-.866.296-1.259.296h-.024c-.393
      0-.813-.099-1.259-.296-.446-.197-.8-.393-1.062-.586a24.059 24.059 0 0 1-1.019-.809c-1.293-1.062-3.036-2.423-5.23-4.08a7.144 7.144 0 0 1-.847-.798v9.273c0
      .105.04.195.117.272a.38.38 0 0 0 .276.115h18.072a.38.38 0 0 0 .276-.115.368.368 0 0 0
      .117-.272zm0-12.69v-.295l-.007-.157-.036-.151-.068-.109-.11-.09-.172-.03H1.964a.38.38 0 0 0-.276.114.368.368 0 0 0-.117.272c0 1.352.602 2.495 1.805 3.429
      1.58 1.223 3.22 2.5 4.923 3.827.05.04.192.16.43.356.237.198.425.349.565.453.139.105.32.232.546.38.225.15.432.26.62.333.188.072.364.108.528.108h.024c.164
      0 .34-.036.528-.108.188-.073.395-.184.62-.333.225-.148.407-.275.546-.38.14-.104.328-.255.565-.453.238-.197.38-.316.43-.356 1.702-1.328 3.343-2.604
      4.923-3.827.442-.346.853-.811 1.234-1.395.38-.583.57-1.113.57-1.587zM22 1.933v13.136c0 .531-.192.986-.577 1.365a1.908 1.908 0 0 1-1.387.567H1.964c-.54
      0-1.002-.19-1.387-.567A1.845 1.845 0 0 1 0 15.068V1.932C0 1.4.192.946.577.567A1.908 1.908 0 0 1 1.964 0h18.072c.54 0 1.002.19
      1.387.567.385.379.577.834.577 1.365z"/>
  </symbol>
</svg>
